# xmcd
#
# Track frame offsets:
#	150
#	12212
#	20645
#	31860
#	42937
#	51637
#	62977
#	77772
#	89057
#	98692
#	113697
#
# Disc length: 1696 seconds
#
# Revision: 0
# Processed by: cddbd v1.4PL0 Copyright (c) Steve Scherf et al.
# Submitted via: dBpowerAMP V4.0
#
DISCID=8c069e0b
DTITLE=ELVIS PRESLEY - HE WALKS BESIDE ME
DYEAR=1973
DGENRE=Gospel
TTITLE0=HE IS MY EVERYTHING
TTITLE1=MIRACLE OF THE ROSARY
TTITLE2=WHERE DID THEY GO, LORD
TTITLE3=SOMEBODY BIGGER THAN U AND I
TTITLE4=AN EVENING PRAYER
TTITLE5=THE IMPOSSIBLE DREAM (THE QUEST)
TTITLE6=IF I CAN DREAM (UNRELEASED VERSION)
TTITLE7=PADRE
TTITLE8=KNOWN ONLY TO HIM
TTITLE9=WHO AM I ?
TTITLE10=HOW GREAT THOU ART
EXTD=Elvis Presley\nHE WALKS BESIDES ME
EXTT0=
EXTT1=
EXTT2=
EXTT3=
EXTT4=
EXTT5=
EXTT6=
EXTT7=
EXTT8=
EXTT9=
EXTT10=
PLAYORDER=
